<svg width="32" height="20" viewBox="0 0 32 20" fill="none" xmlns="http://www.w3.org/2000/svg">
<rect x="1" y="1" width="30" height="18" rx="9" fill="#FF9F9F"/>
<path d="M9.22088 6.62784C9.59493 6.62784 9.95478 6.69058 10.3004 6.81605C10.6484 6.94152 10.9586 7.14157 11.2308 7.41619C11.5054 7.69081 11.7221 8.0554 11.8807 8.50994C12.0417 8.96212 12.1233 9.51728 12.1257 10.1754C12.1257 10.7933 12.0559 11.3449 11.9162 11.8303C11.7789 12.3132 11.5812 12.724 11.3232 13.0625C11.0651 13.401 10.7538 13.6591 10.3892 13.8366C10.0246 14.0118 9.61742 14.0994 9.16761 14.0994C8.68229 14.0994 8.25379 14.0059 7.8821 13.8189C7.51042 13.6295 7.21094 13.3726 6.98366 13.0483C6.75876 12.7216 6.62263 12.3546 6.57528 11.9474H8.09162C8.1508 12.2126 8.27509 12.4186 8.46449 12.5653C8.65388 12.7098 8.88826 12.782 9.16761 12.782C9.6411 12.782 10.0009 12.576 10.2472 12.1641C10.4934 11.7498 10.6177 11.1828 10.62 10.4631H10.5703C10.4614 10.6761 10.3146 10.8596 10.13 11.0135C9.94531 11.165 9.73343 11.2822 9.49432 11.3651C9.25758 11.4479 9.00545 11.4893 8.73793 11.4893C8.30942 11.4893 7.92708 11.3887 7.59091 11.1875C7.25473 10.9863 6.98958 10.7093 6.79545 10.3565C6.60133 10.0038 6.50426 9.60133 6.50426 9.14915C6.50189 8.66146 6.61435 8.22704 6.84162 7.84588C7.06889 7.46473 7.38613 7.16643 7.79332 6.95099C8.20289 6.73319 8.67874 6.62547 9.22088 6.62784ZM9.23153 7.83523C8.99242 7.83523 8.77936 7.89205 8.59233 8.00568C8.40767 8.11932 8.26089 8.27202 8.15199 8.46378C8.04545 8.65554 7.99337 8.86979 7.99574 9.10653C7.99574 9.34564 8.04782 9.56108 8.15199 9.75284C8.25852 9.94223 8.40294 10.0937 8.58523 10.2074C8.76989 10.3187 8.98059 10.3743 9.21733 10.3743C9.39489 10.3743 9.55942 10.3411 9.71094 10.2749C9.86245 10.2086 9.99384 10.1174 10.1051 10.0014C10.2188 9.88305 10.3075 9.74692 10.3714 9.59304C10.4354 9.43916 10.4673 9.2758 10.4673 9.10298C10.465 8.87334 10.4105 8.66264 10.304 8.47088C10.1974 8.27912 10.0507 8.12524 9.86364 8.00923C9.67661 7.89323 9.46591 7.83523 9.23153 7.83523ZM15.8224 6.62784C16.1965 6.62784 16.5563 6.69058 16.902 6.81605C17.25 6.94152 17.5601 7.14157 17.8324 7.41619C18.107 7.69081 18.3236 8.0554 18.4822 8.50994C18.6432 8.96212 18.7249 9.51728 18.7273 10.1754C18.7273 10.7933 18.6574 11.3449 18.5178 11.8303C18.3804 12.3132 18.1828 12.724 17.9247 13.0625C17.6667 13.401 17.3554 13.6591 16.9908 13.8366C16.6262 14.0118 16.219 14.0994 15.7692 14.0994C15.2839 14.0994 14.8554 14.0059 14.4837 13.8189C14.112 13.6295 13.8125 13.3726 13.5852 13.0483C13.3603 12.7216 13.2242 12.3546 13.1768 11.9474H14.6932C14.7524 12.2126 14.8767 12.4186 15.0661 12.5653C15.2554 12.7098 15.4898 12.782 15.7692 12.782C16.2427 12.782 16.6025 12.576 16.8487 12.1641C17.0949 11.7498 17.2192 11.1828 17.2216 10.4631H17.1719C17.063 10.6761 16.9162 10.8596 16.7315 11.0135C16.5469 11.165 16.335 11.2822 16.0959 11.3651C15.8591 11.4479 15.607 11.4893 15.3395 11.4893C14.911 11.4893 14.5286 11.3887 14.1925 11.1875C13.8563 10.9863 13.5911 10.7093 13.397 10.3565C13.2029 10.0038 13.1058 9.60133 13.1058 9.14915C13.1035 8.66146 13.2159 8.22704 13.4432 7.84588C13.6705 7.46473 13.9877 7.16643 14.3949 6.95099C14.8045 6.73319 15.2803 6.62547 15.8224 6.62784ZM15.8331 7.83523C15.594 7.83523 15.3809 7.89205 15.1939 8.00568C15.0092 8.11932 14.8625 8.27202 14.7536 8.46378C14.647 8.65554 14.5949 8.86979 14.5973 9.10653C14.5973 9.34564 14.6494 9.56108 14.7536 9.75284C14.8601 9.94223 15.0045 10.0937 15.1868 10.2074C15.3714 10.3187 15.5821 10.3743 15.8189 10.3743C15.9964 10.3743 16.161 10.3411 16.3125 10.2749C16.464 10.2086 16.5954 10.1174 16.7067 10.0014C16.8203 9.88305 16.9091 9.74692 16.973 9.59304C17.0369 9.43916 17.0689 9.2758 17.0689 9.10298C17.0665 8.87334 17.0121 8.66264 16.9055 8.47088C16.799 8.27912 16.6522 8.12524 16.4652 8.00923C16.2782 7.89323 16.0675 7.83523 15.8331 7.83523ZM21.9659 12.892V7.86364H23.2372V12.892H21.9659ZM20.0874 11.0135V9.74219H25.1158V11.0135H20.0874Z" fill="white"/>
<rect x="1" y="1" width="30" height="18" rx="9" stroke="#FAFBFD" stroke-width="2"/>
</svg>
