<svg width="58" height="58" viewBox="0 0 58 58" fill="none" xmlns="http://www.w3.org/2000/svg">
<path d="M48.333 16.9167H9.66634C6.99696 16.9167 4.83301 19.0807 4.83301 21.7501V45.9167C4.83301 48.5861 6.99696 50.7501 9.66634 50.7501H48.333C51.0024 50.7501 53.1663 48.5861 53.1663 45.9167V21.7501C53.1663 19.0807 51.0024 16.9167 48.333 16.9167Z" stroke="#7B83CE" stroke-width="2" stroke-linecap="round" stroke-linejoin="round"/>
<path d="M38.6663 50.75V12.0833C38.6663 10.8015 38.1571 9.57208 37.2507 8.66565C36.3443 7.75922 35.1149 7.25 33.833 7.25H24.1663C22.8845 7.25 21.6551 7.75922 20.7487 8.66565C19.8422 9.57208 19.333 10.8015 19.333 12.0833V50.75" stroke="#7B83CE" stroke-width="2" stroke-linecap="round" stroke-linejoin="round"/>
</svg>
